<?xml version="1.0" standalone="no"?>
<!DOCTYPE svg PUBLIC "-//W3C//DTD SVG 20010904//EN"
 "http://www.w3.org/TR/2001/REC-SVG-20010904/DTD/svg10.dtd">
<svg version="1.0" xmlns="http://www.w3.org/2000/svg"
 width="400.000000pt" height="400.000000pt" viewBox="0 0 400.000000 400.000000"
 preserveAspectRatio="xMidYMid meet">
<metadata>
Created by potrace 1.14, written by Peter Selinger 2001-2017
</metadata>
<g transform="translate(0.000000,400.000000) scale(0.100000,-0.100000)"
fill="#000000" stroke="none">
<path d="M2114 3790 c-12 -4 -24 -15 -27 -24 -8 -20 2 -20 26 -1 11 7 24 12
30 11 7 -2 9 -1 4 1 -4 3 -5 9 -1 14 6 11 -4 11 -32 -1z"/>
<path d="M2190 3759 c0 -6 4 -8 9 -5 5 4 11 2 13 -3 1 -6 15 -12 31 -15 16 -3
25 -1 22 5 -4 5 -11 7 -16 4 -5 -4 -11 0 -14 7 -6 16 -45 22 -45 7z"/>
<path d="M2105 3748 c-11 -6 -30 -20 -42 -31 -27 -24 -31 -12 -6 15 15 17 15
18 -10 18 -24 0 -32 -9 -28 -32 1 -10 -36 -4 -46 7 -5 4 -3 6 2 3 6 -3 17 1
25 10 13 14 12 15 -5 8 -11 -5 -28 -8 -37 -8 -9 0 -19 -6 -22 -14 -3 -9 -10
-12 -16 -9 -5 3 -10 0 -10 -8 0 -8 -8 -21 -17 -28 -14 -12 -15 -12 -9 -1 7 11
4 12 -12 3 -11 -6 -22 -18 -26 -28 -5 -15 -4 -15 9 1 15 20 15 20 15 0 0 -16
2 -17 11 -4 7 10 9 11 7 2 -2 -8 -6 -12 -9 -10 -3 2 -13 -3 -22 -10 -9 -8 -20
-11 -26 -8 -5 3 -14 -8 -20 -24 -9 -29 -31 -42 -31 -19 0 5 5 7 10 4 16 -10
11 1 -7 16 -11 10 -14 10 -9 2 9 -16 12 -16 -49 2 -46 13 -48 13 -30 -1 l20
-16 -20 3 c-11 2 -26 0 -34 -5 -10 -6 -12 -5 -7 2 4 7 2 12 -3 12 -18 0 -12
-28 7 -33 9 -3 0 -5 -20 -6 -46 -1 -70 -10 -62 -23 8 -12 -14 -28 -40 -28 -10
0 -44 -12 -76 -26 -75 -33 -113 -29 -46 5 51 27 61 37 47 45 -21 13 -157 -77
-145 -96 4 -6 2 -8 -4 -4 -10 6 -62 -34 -62 -49 0 -4 -16 -25 -36 -47 -38 -43
-58 -83 -94 -193 -12 -38 -29 -77 -37 -86 -24 -28 -84 -191 -77 -213 4 -17 3
-18 -5 -6 -8 11 -11 4 -12 -30 -2 -104 -6 -181 -13 -285 -7 -92 -6 -116 8
-149 10 -23 16 -66 16 -108 0 -39 6 -84 14 -101 8 -18 17 -54 21 -82 7 -52 8
-53 153 -188 l23 -21 -6 55 c-27 272 -27 343 -1 493 9 48 13 92 10 97 -6 11
22 188 37 234 10 30 54 101 75 120 6 6 22 28 35 49 38 62 38 62 47 48 11 -17
40 -5 47 19 4 10 11 19 17 19 6 0 8 15 5 38 -3 20 -3 29 -1 19 3 -9 10 -14 16
-10 8 4 9 0 5 -11 -18 -46 -19 -66 -4 -66 8 0 18 10 22 23 4 12 8 24 10 27 1
3 7 16 13 30 6 14 11 19 11 12 1 -7 6 -10 11 -7 6 4 8 11 5 16 -4 5 -1 9 4 9
6 0 11 -12 12 -27 0 -16 3 -22 6 -15 2 6 9 12 14 12 6 0 6 -8 -1 -19 -12 -24
-13 -44 -1 -37 14 9 23 -25 10 -41 -13 -15 -6 -29 10 -19 8 5 41 63 41 72 0 1
-9 0 -20 -3 -18 -5 -20 -1 -18 28 2 24 -1 33 -10 31 -8 -1 -11 2 -7 7 3 6 12
8 19 5 15 -6 66 50 66 72 0 9 4 13 8 10 5 -3 16 9 26 25 10 17 23 28 29 26 22
-7 18 -28 -13 -57 -20 -19 -30 -36 -26 -46 3 -8 10 -13 15 -9 6 3 8 12 4 20
-4 11 -1 13 13 8 11 -4 15 -3 10 5 -4 7 3 14 19 18 18 5 24 11 20 23 -3 11 3
25 16 37 l22 19 -18 -27 c-21 -33 -3 -38 19 -6 9 12 16 19 16 14 0 -5 7 -3 15
4 13 11 14 10 9 -4 -3 -9 -2 -16 4 -16 5 0 13 7 16 15 3 9 11 15 18 14 29 -3
58 14 59 35 1 19 2 18 8 -4 7 -24 7 -24 13 -4 3 11 13 21 22 21 10 0 16 -9 16
-21 0 -16 2 -18 9 -7 7 11 10 11 15 0 4 -9 8 -10 11 -3 9 18 70 -46 99 -103
25 -50 46 -75 46 -54 0 6 -4 11 -10 11 -5 0 -10 5 -10 11 0 18 30 -11 31 -30
0 -10 2 -11 6 -3 3 8 16 1 39 -20 19 -18 34 -35 34 -39 0 -4 16 -35 35 -69 19
-34 35 -68 35 -75 0 -8 16 -44 35 -82 19 -37 35 -73 35 -79 0 -6 11 -28 25
-49 14 -20 30 -53 34 -73 5 -21 9 -29 10 -19 1 9 8 17 16 17 8 0 15 5 15 11 0
6 -7 17 -15 25 -22 22 -19 40 3 21 10 -10 32 -17 49 -17 22 0 32 -6 36 -20 3
-12 14 -20 26 -20 31 0 50 -38 46 -91 -4 -39 -1 -48 14 -52 12 -3 22 -18 26
-38 4 -19 13 -43 20 -54 7 -11 16 -51 20 -90 8 -82 9 -383 1 -405 -3 -8 -7
-26 -9 -40 -6 -38 -38 -111 -47 -105 -4 3 -11 -5 -15 -18 -8 -21 -8 -21 -12 5
-5 32 -28 39 -64 22 -25 -12 -26 -12 -22 10 6 27 -13 44 -30 27 -8 -8 -8 -11
2 -11 7 0 10 -4 7 -9 -3 -4 -23 -4 -46 2 -27 8 -36 14 -27 20 8 6 6 7 -6 3
-22 -7 -91 20 -83 33 4 5 -18 25 -49 43 -30 18 -57 41 -61 51 -7 21 3 37 14
21 4 -5 22 -11 40 -12 24 -3 32 0 32 13 0 9 3 14 8 11 4 -2 18 2 32 10 l25 13
-30 2 c-17 1 -23 3 -12 6 21 6 22 17 2 33 -8 7 -15 18 -15 25 0 7 -11 16 -25
19 -14 4 -23 11 -19 17 3 6 13 8 21 5 8 -3 30 1 49 10 34 16 45 33 22 35 -7 1
-2 4 12 8 16 5 24 13 22 24 -2 9 2 17 8 17 6 0 9 4 5 10 -3 5 7 3 22 -5 15 -8
38 -15 50 -15 24 0 43 22 25 28 -7 2 -12 8 -12 14 0 5 -9 22 -20 38 -11 15
-17 30 -13 34 3 3 -1 6 -11 6 -9 0 -14 5 -11 10 4 6 16 8 27 4 15 -4 19 -3 14
7 -4 8 -1 6 7 -3 8 -10 18 -18 23 -18 5 0 14 -8 21 -19 15 -23 53 -35 53 -15
0 8 5 14 11 14 5 0 7 5 4 10 -3 6 2 10 13 10 24 0 22 41 -2 66 -9 8 -14 20
-10 25 3 5 -9 21 -26 35 -23 20 -29 32 -25 48 5 15 4 17 -3 7 -6 -7 -15 -10
-22 -6 -9 6 -9 9 0 15 8 5 2 14 -19 29 -17 12 -31 20 -31 17 0 -3 -10 4 -21
15 -17 17 -23 19 -30 8 -5 -8 -9 -21 -9 -30 0 -15 -6 -16 -42 -7 -24 5 -65 7
-91 4 -32 -3 -45 -2 -41 5 4 7 -9 10 -38 8 -24 -2 -49 1 -56 5 -7 4 -19 2 -27
-4 -12 -10 -15 -9 -15 6 -1 18 -1 18 -11 2 -5 -10 -16 -18 -24 -18 -7 0 -15
-6 -18 -12 -3 -10 -7 -10 -19 0 -17 14 -33 10 -95 -21 -41 -21 -42 -21 -62 -3
-11 10 -32 18 -45 19 -14 0 -24 3 -21 7 2 4 -7 6 -22 4 -39 -4 -72 13 -79 41
-3 14 -11 25 -18 26 -65 6 -75 5 -63 -10 10 -12 9 -13 -9 -3 -11 6 -34 9 -50
7 -41 -5 -41 -5 -19 -15 18 -8 17 -9 -8 -9 -16 -1 -26 -5 -23 -10 3 -5 -12 -8
-34 -7 -22 0 -40 -2 -40 -6 0 -5 -7 -8 -15 -8 -8 0 -15 -5 -15 -11 0 -6 -9 -8
-22 -4 -15 6 -26 1 -40 -16 -10 -13 -18 -19 -17 -14 3 22 -2 26 -17 11 -8 -9
-25 -16 -37 -16 -16 0 -18 -3 -8 -9 7 -5 9 -11 5 -13 -5 -3 -3 -3 4 -1 26 6
31 -8 12 -27 -11 -11 -24 -20 -29 -20 -6 0 -12 -4 -15 -8 -7 -12 105 -6 137 7
16 6 33 8 39 5 6 -4 15 0 20 7 7 11 11 11 15 2 2 -7 14 -13 26 -13 21 -1 21
-1 -3 -15 l-25 -15 30 6 c45 10 29 0 -57 -36 -72 -29 -138 -82 -138 -110 0
-13 6 -13 40 5 25 13 34 13 52 3 13 -7 25 -15 28 -18 3 -4 24 -12 48 -18 23
-7 42 -18 42 -23 0 -18 -41 -64 -63 -71 -13 -4 0 -6 33 -6 30 1 62 5 70 8 15
8 72 28 102 37 10 3 18 -2 21 -14 4 -15 5 -14 6 4 1 26 20 40 31 23 9 -15 20
10 20 47 0 18 4 24 15 20 11 -5 14 2 13 26 -1 41 50 137 80 148 12 5 22 15 22
23 0 35 28 1 45 -55 10 -32 21 -59 25 -59 4 0 24 -35 44 -77 21 -42 45 -88 55
-102 9 -14 27 -52 39 -84 19 -50 19 -57 6 -55 -9 2 -21 -4 -27 -13 -8 -14 -1
-27 37 -70 53 -61 66 -94 44 -115 -20 -20 -61 -9 -73 19 -10 21 -50 28 -85 14
-8 -4 -26 -8 -40 -11 -54 -9 -59 -15 -55 -63 1 -25 8 -49 15 -53 6 -4 -9 -10
-36 -14 -26 -3 -53 -11 -60 -16 -8 -8 -14 -8 -19 1 -4 6 -1 15 6 20 11 7 10 9
-3 9 -10 0 -18 5 -18 10 0 6 -6 10 -14 10 -8 0 -18 5 -22 12 -5 8 -2 9 10 5
14 -6 17 -3 12 9 -3 8 -6 18 -6 20 0 2 -9 4 -20 4 -11 0 -29 9 -41 21 -17 17
-19 28 -14 62 4 23 13 54 20 70 10 19 10 25 2 20 -7 -4 -6 1 2 11 20 24 2 40
-32 27 -30 -12 -45 10 -22 29 8 7 13 16 10 20 -3 4 3 11 13 15 15 7 14 9 -8
15 l-25 8 24 1 c18 1 21 4 12 14 -6 8 -8 17 -4 20 3 4 1 7 -5 7 -7 0 -12 -7
-12 -16 0 -11 -6 -15 -20 -11 -11 3 -20 2 -20 -3 0 -4 -11 -10 -25 -12 -13 -3
-22 -1 -19 3 3 5 -2 9 -11 9 -9 0 -14 -4 -10 -9 3 -5 1 -12 -4 -16 -5 -3 -13
1 -18 9 -9 15 -41 26 -42 14 -3 -29 1 -38 17 -39 10 0 12 -3 5 -6 -29 -11 -11
-31 35 -37 36 -5 50 -3 58 9 9 12 13 10 23 -12 11 -23 10 -29 -3 -39 -9 -6
-16 -15 -16 -20 -1 -18 -56 -69 -95 -89 -22 -11 -54 -33 -70 -50 -46 -45 -82
-89 -66 -80 11 6 13 3 9 -13 -3 -12 -2 -54 2 -94 7 -60 15 -84 43 -125 33 -49
35 -51 41 -28 8 30 20 31 54 4 l27 -21 3 24 c6 38 18 42 55 14 19 -15 39 -26
43 -25 19 3 33 -2 48 -17 9 -9 24 -17 34 -19 9 -2 18 -4 20 -5 1 -2 7 -3 14
-4 7 0 17 -11 23 -23 8 -16 15 -19 22 -12 8 8 13 1 18 -23 7 -28 9 -30 15 -13
7 19 8 19 15 2 7 -17 8 -17 20 0 13 17 14 17 21 -1 5 -13 2 -23 -9 -31 -24
-17 -21 -28 5 -19 20 6 21 5 6 -10 -9 -9 -21 -16 -26 -16 -9 0 -22 -22 -22
-37 0 -3 11 -3 23 1 21 5 25 1 36 -33 13 -44 36 -59 50 -33 6 9 11 15 11 12
10 -53 1 -93 -13 -57 -3 7 -6 5 -6 -5 -1 -10 -12 -20 -26 -24 -27 -7 -33 -19
-11 -27 7 -3 15 -14 18 -24 4 -15 0 -19 -16 -19 -15 1 -22 -6 -24 -24 -3 -21
-41 -70 -49 -62 -2 1 -6 2 -10 2 -5 0 -1 -5 7 -10 13 -8 12 -10 -2 -10 -10 0
-18 5 -18 11 0 5 -4 7 -10 4 -5 -3 -10 2 -11 12 0 14 -3 12 -10 -6 -9 -23 -10
-24 -24 -5 -8 10 -15 14 -15 7 0 -15 -30 -6 -47 14 -6 8 -14 10 -17 5 -3 -5 1
-15 9 -22 8 -7 12 -17 9 -22 -3 -5 2 -8 12 -7 28 4 88 -12 76 -20 -7 -4 -4
-11 8 -19 17 -10 20 -10 20 3 0 13 2 14 14 3 8 -7 12 -15 10 -17 -8 -9 34 -30
72 -35 151 -22 176 -24 191 -13 8 6 15 4 19 -7 8 -22 26 -9 19 14 -7 21 9 29
53 24 25 -3 32 0 32 14 1 17 30 64 30 47 0 -5 7 0 15 11 13 17 14 17 15 2 0
-24 17 -23 25 2 5 16 10 18 26 10 10 -6 19 -17 19 -25 0 -8 5 -15 10 -15 6 0
10 4 10 9 0 6 -4 13 -10 16 -5 3 -10 13 -10 22 0 11 6 14 24 9 20 -5 23 -2 23
22 0 15 -2 21 -4 15 -5 -15 -43 -18 -43 -4 0 5 5 11 11 13 6 2 12 16 12 31 1
15 5 27 10 27 16 0 22 4 34 19 8 10 12 12 13 4 0 -7 5 -13 10 -13 6 0 8 11 4
25 -3 14 -1 32 6 40 6 8 9 24 5 37 -6 22 -5 22 10 -2 13 -21 15 -22 12 -5 -4
24 16 69 49 108 13 16 24 34 24 40 1 14 64 142 105 212 23 39 30 63 31 112 1
34 5 66 8 72 4 5 21 7 40 4 19 -3 36 -1 40 6 4 6 3 11 -3 11 -13 0 -41 53 -41
78 0 10 9 29 20 42 11 13 20 29 20 37 0 7 9 21 20 30 11 10 27 39 36 65 8 26
20 48 24 48 5 0 15 12 23 26 7 14 24 31 37 37 50 25 75 224 57 452 -4 50 -9
129 -11 177 -3 66 -9 96 -25 123 -11 20 -21 46 -21 57 0 12 -9 40 -19 62 -10
23 -29 75 -41 116 -27 90 -59 148 -100 178 -17 13 -28 27 -25 33 4 5 2 9 -4 9
-14 0 -112 91 -106 100 2 4 -6 12 -18 19 -19 10 -96 108 -106 136 -2 5 -22 27
-44 48 -23 20 -37 37 -32 37 6 0 -5 9 -22 20 -18 11 -33 24 -33 30 0 5 -3 9
-7 8 -10 -3 -66 33 -75 48 -12 18 -58 26 -73 14 -14 -12 -9 -44 5 -35 17 10
23 -18 6 -30 -14 -11 -12 -13 15 -19 18 -3 38 -15 46 -26 8 -11 20 -20 26 -19
9 0 9 2 0 6 -7 2 -13 9 -13 15 0 6 6 5 15 -2 24 -20 0 -42 -31 -29 -14 5 -37
9 -52 8 -19 -1 -14 -4 17 -10 45 -9 91 -33 91 -48 0 -4 -11 -6 -25 -3 -14 2
-22 9 -18 15 3 6 1 7 -5 3 -6 -4 -27 0 -47 8 -19 8 -35 12 -35 9 0 -4 -6 2
-14 12 -8 11 -12 23 -10 27 3 4 -6 10 -20 14 -26 6 -44 34 -23 34 7 0 4 5 -6
11 -9 5 -22 7 -27 4 -5 -3 -7 0 -4 8 4 11 -2 14 -20 12 -15 -2 -24 1 -20 6 3
5 10 7 15 4 5 -4 9 -1 9 4 0 6 -10 9 -22 7 -13 -3 -27 -5 -31 -5 -5 -1 -5 -7
-1 -13 5 -10 4 -10 -6 -1 -14 13 -22 56 -10 48 4 -3 15 4 25 15 20 23 19 24
-10 8z m-135 -36 c0 -4 -14 -15 -31 -24 l-30 -18 21 30 c19 26 40 33 40 12z
m340 -12 c0 -5 -4 -10 -10 -10 -5 0 -10 5 -10 10 0 6 5 10 10 10 6 0 10 -4 10
-10z m114 -155 c11 -8 15 -15 10 -15 -6 0 -19 7 -30 15 -10 8 -14 14 -9 14 6
0 19 -6 29 -14z m-784 1 c0 -3 -4 -8 -10 -11 -5 -3 -10 -1 -10 4 0 6 5 11 10
11 6 0 10 -2 10 -4z m655 -15 c-19 -8 -19 -8 3 -20 19 -10 26 -10 39 0 12 11
17 10 28 -4 13 -18 31 -24 20 -7 -10 16 2 12 42 -16 30 -21 33 -25 13 -20
l-25 7 25 -21 c14 -12 33 -28 43 -35 19 -16 23 -35 6 -35 -5 0 -8 4 -5 8 2 4
-5 14 -16 21 -18 11 -20 11 -15 -2 4 -11 0 -15 -17 -13 -12 1 -28 6 -35 11
-10 6 -12 4 -6 -5 6 -10 4 -12 -8 -7 -10 3 -17 2 -17 -4 0 -6 -4 -7 -10 -4 -5
3 -10 14 -10 24 0 19 -26 31 -70 31 -14 0 -32 5 -40 11 -11 8 -3 9 30 4 53 -7
47 5 -7 14 -30 5 -39 11 -41 30 -3 20 0 23 17 18 12 -3 19 -1 16 3 -5 8 17 17
45 18 9 0 7 -3 -5 -7z m150 -39 c-3 -3 -11 0 -18 7 -9 10 -8 11 6 5 10 -3 15
-9 12 -12z m-232 -16 c4 -10 0 -12 -15 -8 -15 4 -17 7 -6 13 17 11 15 11 21
-5z m-619 -7 c-3 -5 -12 -9 -20 -9 -8 0 -14 -4 -14 -10 0 -5 -6 -10 -14 -10
-21 0 -86 -40 -86 -53 0 -6 -3 -7 -7 -4 -4 4 -19 -5 -35 -20 -15 -15 -28 -22
-28 -16 0 6 24 32 53 58 50 46 51 46 12 24 -25 -15 -35 -17 -28 -8 15 19 8 30
-15 23 -10 -3 -4 2 12 11 23 14 30 14 36 4 7 -10 13 -9 31 3 24 16 113 22 103
7z m191 -29 c-3 -5 0 -10 7 -10 9 0 9 -3 -2 -10 -8 -5 -11 -10 -6 -10 5 0 3
-7 -4 -15 -7 -9 -8 -15 -2 -15 5 0 13 7 16 16 3 8 10 13 15 9 5 -3 13 0 17 6
5 8 3 9 -6 4 -9 -6 -11 -4 -5 4 5 9 10 10 18 2 7 -7 6 -15 -3 -26 -18 -22 -4
-32 23 -16 l22 14 -23 -25 c-12 -13 -20 -27 -17 -30 8 -7 -41 -53 -57 -54 -24
-1 -70 37 -63 54 5 13 3 13 -12 1 -15 -13 -16 -12 -11 8 5 17 2 20 -11 16 -25
-9 -41 -24 -36 -33 3 -5 0 -12 -6 -16 -8 -4 -9 -3 -5 5 9 14 -52 6 -71 -11
-16 -13 -16 -8 -3 28 10 24 9 26 -10 21 -15 -4 -18 -2 -11 6 5 7 11 17 13 22
1 6 7 9 11 7 5 -1 6 2 2 8 -5 8 -11 7 -21 -1 -8 -6 -14 -8 -14 -5 0 4 -9 2
-20 -4 -35 -19 -22 -1 20 26 l40 27 20 -23 c11 -12 17 -28 13 -34 -8 -12 28
14 39 28 4 6 14 4 24 -5 10 -8 15 -9 11 -3 -4 7 -1 14 7 17 10 4 12 0 9 -14
-3 -10 -14 -19 -24 -19 -11 0 -19 -4 -19 -10 0 -6 9 -6 23 -1 12 4 27 6 32 4
6 -2 26 13 45 32 34 35 47 44 35 25z m-45 -25 c-7 -9 -15 -13 -19 -10 -3 3 1
10 9 15 21 14 24 12 10 -5z m705 -35 c3 -5 2 -10 -4 -10 -5 0 -13 5 -16 10 -3
6 -2 10 4 10 5 0 13 -4 16 -10z m-57 -12 c-2 -7 3 -12 10 -10 6 1 12 -2 12 -8
0 -12 -10 -13 -29 -1 -7 5 -10 14 -7 20 9 15 17 14 14 -1z m97 -28 c10 -11 14
-20 9 -20 -5 0 -15 9 -22 20 -7 11 -11 20 -9 20 2 0 12 -9 22 -20z m-30 -21
c-3 -4 -13 -5 -22 -2 -11 4 -13 8 -5 11 7 2 9 9 5 15 -4 7 1 6 10 -2 9 -7 14
-17 12 -22z m-795 -18 c0 -5 -7 -12 -16 -15 -14 -5 -15 -4 -4 9 14 17 20 19
20 6z m405 -21 c3 -5 1 -10 -4 -10 -6 0 -11 5 -11 10 0 6 2 10 4 10 3 0 8 -4
11 -10z m-285 -20 c0 -5 -5 -10 -11 -10 -5 0 -7 5 -4 10 3 6 8 10 11 10 2 0 4
-4 4 -10z m-167 -58 c-10 -10 -20 -17 -22 -16 -6 5 20 34 30 34 5 0 1 -8 -8
-18z m-37 -59 c-10 -10 -19 5 -10 18 6 11 8 11 12 0 2 -7 1 -15 -2 -18z m-143
-123 c-7 -27 -13 -25 -11 4 1 14 5 23 9 20 4 -2 5 -13 2 -24z m-303 -56 c0 -8
-4 -12 -10 -9 -5 3 -10 10 -10 16 0 5 5 9 10 9 6 0 10 -7 10 -16z m1293 -643
c-4 -14 14 -15 19 0 2 7 18 5 46 -6 44 -18 52 -29 27 -39 -8 -3 -15 -1 -15 5
0 6 -5 7 -12 3 -8 -5 -9 -2 -5 9 3 10 2 17 -2 17 -5 0 -12 -6 -14 -12 -3 -8
-6 -5 -6 6 -1 14 -4 16 -15 7 -14 -12 -46 -5 -46 9 0 5 -8 11 -17 13 -10 3 -4
4 12 2 17 -1 29 -8 28 -14z m277 -26 c0 -8 -2 -15 -4 -15 -2 0 -6 7 -10 15 -3
8 -1 15 4 15 6 0 10 -7 10 -15z m-1171 -72 c1 -8 -6 -8 -29 0 l-30 12 22 17
c22 16 23 16 30 0 4 -9 7 -22 7 -29z m711 -283 c0 -5 -4 -10 -10 -10 -5 0 -10
5 -10 10 0 6 5 10 10 10 6 0 10 -4 10 -10z m-480 -214 c0 -24 20 -61 20 -37 0
11 3 11 16 0 14 -12 14 -14 -3 -21 -12 -6 -7 -7 15 -3 27 4 32 1 32 -15 0 -15
-7 -20 -27 -19 -25 0 -26 1 -8 9 19 8 19 9 1 9 -10 1 -27 -9 -37 -21 -26 -29
-11 -44 56 -53 36 -4 55 -11 55 -20 0 -7 6 -16 13 -18 20 -9 -12 -25 -36 -19
-15 4 -18 2 -12 -9 7 -11 6 -12 -6 -2 -9 7 -26 10 -40 7 -67 -14 -88 -15 -124
-5 -61 17 -69 24 -55 51 8 15 8 20 1 16 -17 -11 -13 11 6 30 16 16 16 16 -4
10 -18 -6 -20 -4 -16 14 5 17 8 19 15 8 7 -9 8 -8 4 5 -3 10 -6 24 -6 30 0 7
-4 6 -10 -3 -7 -10 -10 -11 -10 -2 0 7 11 18 25 24 14 6 25 15 25 19 0 4 19
19 42 33 46 27 68 22 68 -18z m515 4 c14 -13 25 -33 25 -44 0 -12 9 -36 20
-54 l21 -33 -23 -19 c-13 -11 -32 -20 -43 -21 -17 -1 -17 -2 -2 -6 27 -7 20
-20 -15 -27 -17 -3 -32 -5 -34 -4 -2 3 -7 205 -5 225 2 17 28 10 56 -17z m362
-42 c-3 -8 -6 -5 -6 6 -1 11 2 17 5 13 3 -3 4 -12 1 -19z m-787 -78 c0 -5 -5
-10 -11 -10 -5 0 -7 5 -4 10 3 6 8 10 11 10 2 0 4 -4 4 -10z m674 -115 c-8
-20 -15 -52 -16 -71 -1 -24 -4 -32 -12 -24 -5 5 -19 10 -29 10 -16 0 -17 -2
-7 -15 7 -9 15 -13 18 -10 9 8 42 -27 41 -44 0 -12 -3 -11 -9 4 -6 15 -8 9 -8
-22 0 -24 5 -43 10 -43 5 0 6 5 3 10 -9 15 4 12 21 -4 18 -19 18 -32 0 -17
-12 10 -18 7 -31 -19 -12 -24 -21 -30 -36 -25 -17 6 -18 4 -9 -19 6 -17 6 -26
0 -26 -6 0 -15 12 -20 26 -12 31 -34 21 -27 -12 2 -14 1 -27 -4 -30 -4 -2 -6
-11 -2 -19 3 -9 1 -21 -5 -28 -6 -6 -10 -16 -10 -22 -1 -14 -42 -40 -42 -26 0
6 7 11 16 11 9 0 14 6 11 13 -2 6 3 17 11 23 9 7 11 13 5 17 -5 4 -16 -5 -23
-19 -8 -14 -20 -22 -27 -20 -10 4 -12 -1 -7 -19 5 -19 3 -24 -8 -20 -20 8 -63
-44 -49 -58 19 -19 12 -31 -8 -13 -11 10 -18 23 -15 30 6 16 -28 17 -39 2 -5
-6 -6 -1 -2 11 3 12 3 33 -1 48 -6 23 -8 25 -16 11 -5 -9 -7 -24 -4 -34 5 -14
0 -18 -26 -20 -17 -2 -38 -8 -45 -14 -16 -13 -16 -8 -3 26 7 20 6 26 -4 26
-16 0 -34 46 -28 73 4 18 9 20 61 17 22 -1 31 2 27 9 -4 6 -20 11 -36 11 -22
0 -28 4 -24 15 4 10 0 15 -15 15 -14 0 -19 -5 -15 -15 4 -8 1 -15 -5 -15 -6 0
-11 5 -11 11 0 5 -4 8 -9 5 -5 -4 -4 7 2 23 9 24 14 28 28 20 24 -12 29 -11
29 6 0 10 10 15 32 15 29 0 30 1 15 18 -11 12 -13 22 -7 32 5 8 10 12 10 7 0
-13 50 25 50 39 0 7 16 16 38 20 20 4 39 10 42 13 10 13 80 32 92 25 8 -5 9 0
5 15 -3 13 -1 21 6 20 35 -6 102 53 114 100 6 24 6 24 14 3 5 -14 3 -35 -7
-57z m192 35 c0 -12 -4 -16 -9 -11 -5 5 -6 14 -3 20 10 15 12 14 12 -9z m-858
-58 c13 -7 22 -8 22 -2 0 15 63 12 87 -5 14 -10 24 -12 28 -5 11 17 95 12 102
-6 5 -15 7 -15 15 -1 5 9 17 14 30 12 28 -6 32 -11 24 -31 -4 -11 -15 -15 -36
-12 -16 3 -31 0 -33 -6 -6 -18 -261 -18 -303 0 -37 15 -74 48 -74 64 0 13 46
13 70 0 14 -7 20 -6 25 7 3 10 9 13 13 8 4 -6 17 -16 30 -23z m352 -2 c0 -5
-4 -10 -10 -10 -5 0 -10 5 -10 10 0 6 5 10 10 10 6 0 10 -4 10 -10z m-70 -184
c0 -3 -4 -8 -10 -11 -5 -3 -10 -1 -10 4 0 6 5 11 10 11 6 0 10 -2 10 -4z m357
-218 c-3 -8 -6 -5 -6 6 -1 11 2 17 5 13 3 -3 4 -12 1 -19z m-413 -58 c-5 -4
-20 -11 -34 -15 -24 -7 -24 -7 5 19 17 14 32 21 34 15 2 -6 -1 -14 -5 -19z
m76 -4 c0 -11 -19 -15 -25 -6 -3 5 1 10 9 10 9 0 16 -2 16 -4z m83 -31 c-3 -9
-8 -14 -10 -11 -3 3 -2 9 2 15 9 16 15 13 8 -4z"/>
<path d="M2380 3480 c-12 -8 -12 -10 3 -16 21 -8 35 2 21 16 -5 5 -15 6 -24 0z"/>
<path d="M1739 3353 c-13 -16 -12 -17 4 -4 9 7 17 15 17 17 0 8 -8 3 -21 -13z"/>
<path d="M1740 3330 c-8 -5 -12 -12 -9 -15 4 -3 12 1 19 10 14 17 11 19 -10 5z"/>
<path d="M1806 3324 c-5 -14 -4 -15 9 -4 17 14 19 20 6 20 -5 0 -12 -7 -15
-16z"/>
<path d="M2418 1375 c2 -19 8 -38 13 -41 5 -3 9 -12 9 -20 0 -16 35 -54 50
-54 15 0 12 16 -5 30 -17 14 -21 45 -5 35 6 -3 10 -2 10 4 0 5 -5 13 -11 17
-8 5 -8 9 1 14 8 5 3 10 -14 14 -14 3 -26 13 -26 21 0 8 -6 15 -13 15 -9 0
-12 -11 -9 -35z"/>
<path d="M2380 1286 c0 -2 7 -7 16 -10 8 -3 12 -2 9 4 -6 10 -25 14 -25 6z"/>
<path d="M2422 1260 c-10 -16 -10 -20 2 -20 7 0 16 9 19 20 3 11 2 20 -2 20
-3 0 -12 -9 -19 -20z"/>
<path d="M2352 1228 c-13 -13 -16 -38 -6 -38 8 0 33 32 34 43 0 11 -15 8 -28
-5z"/>
<path d="M2278 1192 c-21 -13 -38 -31 -38 -39 0 -10 -9 -13 -31 -11 -23 2 -33
-1 -34 -12 -2 -10 5 -17 18 -17 11 -1 23 -7 27 -13 5 -8 16 -3 34 16 23 26 24
29 8 36 -14 5 -14 7 -1 7 16 1 66 48 58 55 -2 2 -21 -8 -41 -22z"/>
<path d="M2165 1200 c-4 -6 7 -10 24 -10 39 0 48 14 10 17 -15 1 -31 -2 -34
-7z"/>
<path d="M2110 1100 c0 -5 4 -10 9 -10 6 0 13 5 16 10 3 6 -1 10 -9 10 -9 0
-16 -4 -16 -10z"/>
<path d="M2155 1050 c-3 -5 1 -10 9 -10 9 0 16 5 16 10 0 6 -4 10 -9 10 -6 0
-13 -4 -16 -10z"/>
<path d="M2191 3716 c-12 -14 -11 -16 5 -15 11 1 33 5 49 10 l30 8 -32 -3
c-18 -1 -34 2 -36 7 -1 5 -9 2 -16 -7z"/>
<path d="M1730 3626 c0 -2 7 -7 16 -10 8 -3 12 -2 9 4 -6 10 -25 14 -25 6z"/>
<path d="M1359 3543 c-13 -16 -12 -17 4 -4 16 13 21 21 13 21 -2 0 -10 -8 -17
-17z"/>
<path d="M1672 3073 c-6 -2 -10 -9 -6 -14 3 -5 0 -9 -5 -9 -6 0 -11 -5 -11
-11 0 -6 8 -9 18 -7 9 2 16 10 15 16 -2 7 2 12 7 12 6 0 10 5 10 10 0 11 -7
12 -28 3z"/>
<path d="M1790 2969 c0 -5 5 -7 10 -4 6 3 10 8 10 11 0 2 -4 4 -10 4 -5 0 -10
-5 -10 -11z"/>
<path d="M1315 2331 c-6 -11 13 -26 22 -17 4 3 0 6 -8 6 -11 0 -11 2 1 10 9 6
10 10 3 10 -6 0 -14 -4 -18 -9z"/>
<path d="M2480 2069 c0 -5 5 -7 10 -4 6 3 10 8 10 11 0 2 -4 4 -10 4 -5 0 -10
-5 -10 -11z"/>
<path d="M1765 2030 c-3 -5 -1 -10 4 -10 6 0 11 5 11 10 0 6 -2 10 -4 10 -3 0
-8 -4 -11 -10z"/>
<path d="M1135 1820 c-3 -5 -1 -10 4 -10 6 0 11 5 11 10 0 6 -2 10 -4 10 -3 0
-8 -4 -11 -10z"/>
<path d="M1211 1732 l-1 -64 -31 7 c-30 7 -32 6 -26 -16 4 -13 7 -33 8 -44 0
-11 3 -14 6 -7 9 22 23 13 23 -15 1 -30 23 -67 33 -56 4 3 7 1 7 -5 0 -7 5
-12 11 -12 7 0 8 11 3 33 -4 17 -13 79 -19 137 -12 97 -13 100 -14 42z"/>
<path d="M1834 1741 c8 -12 46 -21 46 -11 0 8 -24 20 -41 20 -6 0 -8 -4 -5 -9z"/>
<path d="M1890 1670 c0 -5 7 -10 16 -10 8 0 12 5 9 10 -3 6 -10 10 -16 10 -5
0 -9 -4 -9 -10z"/>
<path d="M1360 1275 c0 -8 4 -15 10 -15 5 0 7 7 4 15 -4 8 -8 15 -10 15 -2 0
-4 -7 -4 -15z"/>
<path d="M1338 1133 c-35 -38 -57 -83 -68 -145 -6 -28 -22 -76 -36 -106 -14
-30 -26 -69 -27 -88 -1 -19 -5 -34 -8 -34 -4 0 -9 -12 -12 -27 -5 -25 -18 -33
-119 -71 -62 -23 -126 -49 -141 -57 -16 -8 -35 -15 -42 -15 -19 0 -71 -49 -67
-65 3 -15 -25 -28 -33 -15 -3 5 -1 11 5 15 5 3 10 10 10 16 0 5 -9 4 -20 -3
-11 -7 -18 -18 -16 -25 7 -18 -11 -25 -33 -14 -16 9 -22 5 -41 -26 -16 -28
-24 -33 -33 -24 -9 9 -8 14 3 21 13 8 13 10 -2 10 -9 0 -23 -9 -31 -20 -8 -12
-21 -18 -29 -15 -17 7 -70 -44 -94 -90 -14 -26 -13 -31 0 -41 9 -6 16 -16 16
-23 0 -18 -35 -12 -50 9 -18 25 -30 26 -30 1 0 -11 -4 -22 -10 -26 -5 -3 -7
-12 -3 -20 3 -10 -1 -15 -12 -15 -16 0 -16 9 2 58 3 6 0 12 -6 12 -6 0 -14
-12 -17 -27 -8 -28 -33 -63 -47 -63 -5 0 -7 6 -5 12 3 7 -6 18 -20 25 -29 16
-32 16 -32 3 0 -5 7 -10 15 -10 9 0 12 -6 9 -15 -4 -8 -1 -15 5 -15 6 0 11 -4
11 -10 0 -5 -7 -10 -15 -10 -8 0 -15 5 -15 11 0 6 -10 9 -22 8 -13 -2 -29 0
-37 5 -10 6 -12 4 -7 -12 8 -25 -10 -38 -30 -21 -12 10 -19 8 -37 -10 l-22
-22 28 6 c21 6 27 4 27 -9 0 -11 -9 -16 -32 -16 -28 -1 -31 -3 -18 -13 16 -12
16 -46 -1 -48 -5 -1 -13 -2 -18 -3 -28 -4 -19 -16 10 -14 25 2 34 -1 34 -12 0
-11 -13 -16 -45 -17 -58 -3 -90 -11 -90 -24 0 -6 8 -6 21 2 12 6 24 7 28 2 3
-5 70 -10 148 -11 120 -1 143 1 143 13 0 8 9 15 20 15 13 0 18 -5 14 -15 -5
-12 3 -15 40 -15 34 0 44 3 40 14 -3 8 3 16 17 19 15 4 23 1 26 -14 4 -13 14
-19 34 -19 16 0 29 5 29 10 0 6 9 10 20 10 11 0 20 -4 20 -10 0 -5 36 -9 88
-8 73 2 90 6 103 22 16 20 44 14 36 -8 -3 -7 14 -12 49 -13 48 -2 54 -1 54 17
0 14 7 20 21 20 16 0 20 -5 16 -20 -6 -23 3 -26 21 -8 10 10 17 10 32 0 24
-15 116 -16 126 -1 4 8 9 8 17 0 14 -14 124 -15 132 -1 3 6 11 10 16 10 6 0 7
-4 4 -10 -9 -14 108 -13 122 1 8 8 13 8 17 0 5 -8 113 -11 346 -11 314 0 339
1 343 17 4 17 5 17 6 1 1 -17 33 -18 531 -18 413 0 529 3 528 12 -2 7 8 14 21
16 17 3 22 0 19 -10 -4 -10 10 -14 63 -15 56 -2 68 1 72 15 4 16 5 16 6 0 1
-13 9 -18 30 -18 25 0 28 3 24 21 -5 17 -2 20 13 17 11 -2 18 -11 18 -21 -2
-14 8 -17 63 -17 44 0 62 3 57 11 -7 13 15 31 29 22 4 -2 3 -11 -4 -19 -9 -11
-8 -14 8 -14 10 0 24 5 31 12 9 9 15 9 24 0 14 -14 68 -16 68 -2 0 6 7 10 15
10 8 0 15 -5 15 -10 0 -7 32 -10 88 -8 79 3 87 5 90 23 2 16 -9 27 -45 47 -26
14 -48 31 -48 39 0 7 -10 18 -22 25 -13 6 -21 13 -19 15 7 7 -116 99 -169 128
-28 14 -64 36 -82 49 -17 12 -34 22 -37 22 -3 0 -37 20 -76 45 -83 53 -171 94
-260 120 -36 11 -91 34 -123 53 -31 18 -74 40 -95 49 -20 8 -68 34 -107 58
-38 23 -87 46 -107 49 -36 7 -37 8 -62 89 -13 45 -29 100 -35 122 -12 47 -56
115 -74 115 -9 0 -12 -16 -9 -58 3 -51 0 -61 -22 -85 -14 -15 -28 -27 -31 -27
-22 1 -26 -2 -20 -19 4 -13 0 -20 -15 -24 -11 -3 -20 -13 -20 -25 0 -25 -26
-49 -32 -30 -3 7 -13 -4 -22 -24 -10 -21 -25 -38 -32 -38 -16 0 -19 -16 -4
-25 25 -16 4 -22 -67 -19 -67 3 -73 2 -43 -7 19 -6 47 -13 63 -16 15 -3 27 -6
27 -8 0 -7 -86 -88 -104 -97 -12 -6 -49 -33 -82 -59 -34 -27 -69 -49 -78 -49
-9 0 -16 -7 -16 -15 0 -22 -34 -18 -55 5 -10 11 -26 20 -36 20 -9 0 -36 16
-59 35 -23 19 -48 35 -56 35 -8 0 -14 4 -14 9 0 12 -103 65 -157 81 -24 7 -43
17 -43 22 0 4 -7 8 -16 8 -40 0 -185 84 -257 148 -63 57 -69 82 -61 238 4 84
3 134 -3 134 -5 0 -21 -12 -35 -27z m-68 -247 c0 -3 -4 -8 -10 -11 -5 -3 -10
-1 -10 4 0 6 5 11 10 11 6 0 10 -2 10 -4z m12 -68 c-9 -9 -15 -9 -24 0 -9 9
-7 12 12 12 19 0 21 -3 12 -12z m78 -32 c0 -11 -19 -15 -25 -6 -3 5 1 10 9 10
9 0 16 -2 16 -4z m-40 -16 c0 -4 -7 -11 -16 -14 -22 -8 -24 -8 -24 7 0 7 9 13
20 14 11 1 20 -2 20 -7z m-70 -45 c-7 -8 -17 -15 -22 -15 -11 0 14 29 26 30 5
0 3 -7 -4 -15z m136 -12 c-10 -10 -19 5 -10 18 6 11 8 11 12 0 2 -7 1 -15 -2
-18z m-26 1 c0 -8 -5 -12 -10 -9 -6 4 -8 11 -5 16 9 14 15 11 15 -7z m-150 -4
c0 -5 -4 -10 -10 -10 -5 0 -10 5 -10 10 0 6 5 10 10 10 6 0 10 -4 10 -10z
m116 -17 c-10 -10 -19 5 -10 18 6 11 8 11 12 0 2 -7 1 -15 -2 -18z m-34 -15
c-9 -9 -12 -7 -12 12 0 19 3 21 12 12 9 -9 9 -15 0 -24z m-38 -18 c-13 -11
-77 -31 -82 -25 -10 10 16 27 42 28 14 1 29 9 32 17 5 12 7 12 11 2 3 -8 1
-17 -3 -22z m196 -11 c0 -6 -4 -7 -10 -4 -5 3 -10 11 -10 16 0 6 5 7 10 4 6
-3 10 -11 10 -16z m-40 -4 c0 -8 -4 -15 -10 -15 -5 0 -10 7 -10 15 0 8 5 15
10 15 6 0 10 -7 10 -15z m-40 -11 c0 -8 -4 -12 -10 -9 -5 3 -10 10 -10 16 0 5
5 9 10 9 6 0 10 -7 10 -16z m-30 -10 c0 -8 -4 -12 -10 -9 -5 3 -10 10 -10 16
0 5 5 9 10 9 6 0 10 -7 10 -16z m-42 -5 c-2 -6 -6 -9 -9 -7 -3 2 -13 -3 -22
-11 -15 -11 -17 -11 -17 1 0 8 3 18 7 21 11 11 45 8 41 -4z m242 -27 c0 -15
-2 -15 -10 -2 -13 20 -13 33 0 25 6 -3 10 -14 10 -23z m-303 5 c-2 -7 -8 -12
-13 -12 -5 -1 -19 -6 -31 -13 -19 -11 -23 -10 -23 3 0 8 7 15 15 15 8 0 15 4
15 8 0 4 9 8 21 9 12 1 19 -3 16 -10z m230 -19 c-3 -7 -5 -2 -5 12 0 14 2 19
5 13 2 -7 2 -19 0 -25z m40 6 c-9 -9 -28 6 -21 18 4 6 10 6 17 -1 6 -6 8 -13
4 -17z m-567 -4 c0 -5 -4 -10 -10 -10 -5 0 -10 5 -10 10 0 6 5 10 10 10 6 0
10 -4 10 -10z m480 -5 c0 -8 -4 -15 -10 -15 -5 0 -10 7 -10 15 0 8 5 15 10 15
6 0 10 -7 10 -15z m-30 -16 c0 -5 -4 -9 -10 -9 -5 0 -10 7 -10 16 0 8 5 12 10
9 6 -3 10 -10 10 -16z m-490 1 c0 -5 -7 -10 -16 -10 -8 0 -12 5 -9 10 3 6 10
10 16 10 5 0 9 -4 9 -10z m70 0 c0 -5 -4 -10 -10 -10 -5 0 -10 5 -10 10 0 6 5
10 10 10 6 0 10 -4 10 -10z m380 -6 c0 -8 -4 -12 -10 -9 -5 3 -10 10 -10 16 0
5 5 9 10 9 6 0 10 -7 10 -16z m-42 -12 c2 -7 -3 -12 -10 -12 -8 0 -15 7 -15
15 0 18 19 15 25 -3z m-382 -19 c-10 -10 -19 5 -10 18 6 11 8 11 12 0 2 -7 1
-15 -2 -18z m94 11 c0 -8 -5 -12 -10 -9 -6 4 -8 11 -5 16 9 14 15 11 15 -7z
m250 2 c0 -8 -10 -13 -25 -13 -25 0 -31 7 -18 20 12 12 43 7 43 -7z m290 -11
c0 -8 -4 -15 -10 -15 -5 0 -10 7 -10 15 0 8 5 15 10 15 6 0 10 -7 10 -15z m40
-6 c0 -6 -4 -7 -10 -4 -5 3 -10 11 -10 16 0 6 5 7 10 4 6 -3 10 -11 10 -16z
m60 17 c0 -11 -19 -15 -25 -6 -3 5 1 10 9 10 9 0 16 -2 16 -4z m-770 -15 c0
-5 10 -11 22 -14 21 -6 21 -7 5 -25 -21 -23 -22 -32 -2 -32 19 0 19 -14 2 -29
-22 -17 -35 6 -30 50 5 35 3 39 -16 39 -11 0 -21 5 -21 10 0 6 9 10 20 10 11
0 20 -4 20 -9z m80 0 c0 -6 -4 -12 -10 -16 -5 -3 -7 -13 -4 -23 5 -15 4 -15
-6 1 -6 10 -9 25 -6 33 6 16 26 19 26 5z m240 -7 c0 -8 -4 -12 -10 -9 -5 3
-10 10 -10 16 0 5 5 9 10 9 6 0 10 -7 10 -16z m230 -9 c0 -8 -4 -15 -10 -15
-5 0 -10 7 -10 15 0 8 5 15 10 15 6 0 10 -7 10 -15z m50 5 c0 -5 -4 -10 -10
-10 -5 0 -10 5 -10 10 0 6 5 10 10 10 6 0 10 -4 10 -10z m-90 -21 c0 -11 -4
-17 -10 -14 -5 3 -10 13 -10 21 0 8 5 14 10 14 6 0 10 -9 10 -21z m-36 -4 c3
-9 0 -15 -9 -15 -8 0 -15 7 -15 15 0 8 4 15 9 15 5 0 11 -7 15 -15z m-496 -7
c-7 -19 -38 -22 -38 -4 0 10 9 16 21 16 12 0 19 -5 17 -12z m132 -4 c0 -9 -5
-14 -12 -12 -18 6 -21 28 -4 28 9 0 16 -7 16 -16z m320 -5 c0 -5 -4 -9 -10 -9
-5 0 -10 7 -10 16 0 8 5 12 10 9 6 -3 10 -10 10 -16z m-570 1 c0 -12 -28 -25
-36 -17 -9 9 6 27 22 27 8 0 14 -5 14 -10z m60 -5 c0 -8 -6 -15 -14 -15 -17 0
-28 14 -19 24 12 12 33 6 33 -9z m225 6 c3 -5 1 -12 -5 -16 -5 -3 -10 1 -10 9
0 18 6 21 15 7z m206 -24 c-8 -8 -11 -7 -11 4 0 20 13 34 18 19 3 -7 -1 -17
-7 -23z m49 12 c0 -5 -4 -9 -10 -9 -5 0 -10 7 -10 16 0 8 5 12 10 9 6 -3 10
-10 10 -16z m380 -11 c0 -5 -4 -8 -10 -8 -5 0 -10 10 -10 23 0 18 2 19 10 7 5
-8 10 -18 10 -22z m40 22 c0 -5 -4 -10 -10 -10 -5 0 -10 5 -10 10 0 6 5 10 10
10 6 0 10 -4 10 -10z m-75 -10 c3 -5 -1 -10 -9 -10 -9 0 -16 5 -16 10 0 6 4
10 9 10 6 0 13 -4 16 -10z m-565 -9 c0 -12 -20 -25 -27 -18 -7 7 6 27 18 27 5
0 9 -4 9 -9z m444 -6 c3 -8 1 -15 -3 -15 -5 0 -11 7 -15 15 -3 8 -1 15 3 15 5
0 11 -7 15 -15z m-44 -5 c0 -5 -5 -10 -11 -10 -5 0 -7 5 -4 10 3 6 8 10 11 10
2 0 4 -4 4 -10z m-737 -6 c9 -10 -4 -34 -19 -34 -8 0 -14 6 -14 13 0 22 19 35
33 21z m127 -3 c0 -12 -26 -32 -33 -25 -9 10 4 34 19 34 8 0 14 -4 14 -9z
m250 -1 c0 -5 -4 -10 -10 -10 -5 0 -10 5 -10 10 0 6 5 10 10 10 6 0 10 -4 10
-10z m310 -4 c0 -8 -4 -17 -9 -20 -10 -7 -23 19 -14 28 11 11 23 6 23 -8z
m-820 -6 c0 -5 -5 -10 -11 -10 -5 0 -7 5 -4 10 3 6 8 10 11 10 2 0 4 -4 4 -10z
m70 1 c0 -14 -18 -23 -30 -16 -6 4 -8 11 -5 16 8 12 35 12 35 0z m130 -6 c0
-8 -9 -15 -20 -15 -11 0 -20 7 -20 15 0 8 9 15 20 15 11 0 20 -7 20 -15z m170
1 c0 -16 -18 -31 -27 -22 -8 8 5 36 17 36 5 0 10 -6 10 -14z m372 -18 c-15
-15 -26 -4 -18 18 5 13 9 15 18 6 9 -9 9 -15 0 -24z m38 11 c0 -5 -4 -9 -10
-9 -5 0 -10 7 -10 16 0 8 5 12 10 9 6 -3 10 -10 10 -16z m-803 -25 c-9 -9 -28
6 -21 18 4 6 10 6 17 -1 6 -6 8 -13 4 -17z m433 12 c0 -8 -4 -17 -9 -21 -12
-7 -24 12 -16 25 9 15 25 12 25 -4z m290 -1 c0 -8 -4 -15 -10 -15 -5 0 -10 7
-10 15 0 8 5 15 10 15 6 0 10 -7 10 -15z m507 -7 c39 -37 20 -88 -28 -73 -22
7 -22 8 -3 22 18 14 18 15 -9 37 -15 12 -24 25 -21 29 13 13 38 7 61 -15z
m-921 1 c12 -21 -13 -32 -36 -16 -20 14 -21 16 -3 20 30 8 32 7 39 -4z m162
-6 c-5 -25 -28 -28 -28 -4 0 12 6 21 16 21 9 0 14 -7 12 -17z m573 4 c-1 -12
-15 -9 -19 4 -3 6 1 10 8 8 6 -3 11 -8 11 -12z m69 -2 c0 -8 -2 -15 -4 -15 -2
0 -6 7 -10 15 -3 8 -1 15 4 15 6 0 10 -7 10 -15z m-1035 -5 c3 -6 -1 -13 -10
-16 -19 -8 -30 0 -20 15 8 14 22 14 30 1z m895 0 c0 -5 -2 -10 -4 -10 -3 0 -8
5 -11 10 -3 6 -1 10 4 10 6 0 11 -4 11 -10z m30 -11 c0 -6 -4 -7 -10 -4 -5 3
-10 11 -10 16 0 6 5 7 10 4 6 -3 10 -11 10 -16z m-860 2 c0 -14 -18 -23 -30
-16 -6 4 -8 11 -5 16 8 12 35 12 35 0z m50 -1 c0 -5 -5 -10 -11 -10 -5 0 -7 5
-4 10 3 6 8 10 11 10 2 0 4 -4 4 -10z m310 -5 c0 -8 -7 -15 -15 -15 -16 0 -20
12 -8 23 11 12 23 8 23 -8z m-510 -5 c0 -5 -7 -10 -15 -10 -8 0 -15 5 -15 10
0 6 7 10 15 10 8 0 15 -4 15 -10z m370 -4 c0 -8 -5 -18 -11 -22 -14 -8 -33 11
-25 25 10 16 36 13 36 -3z m185 -16 c-5 -8 -11 -8 -17 -2 -6 6 -7 16 -3 22 5
8 11 8 17 2 6 -6 7 -16 3 -22z m285 16 c0 -8 -4 -18 -10 -21 -5 -3 -10 3 -10
14 0 12 5 21 10 21 6 0 10 -6 10 -14z m35 4 c3 -5 1 -10 -4 -10 -6 0 -11 5
-11 10 0 6 2 10 4 10 3 0 8 -4 11 -10z m45 0 c0 -5 -2 -10 -4 -10 -3 0 -8 5
-11 10 -3 6 -1 10 4 10 6 0 11 -4 11 -10z m-691 -26 c-6 -7 -15 -11 -21 -8 -5
3 -4 12 3 20 6 7 15 11 21 8 5 -3 4 -12 -3 -20z m181 7 c0 -24 -18 -37 -32
-23 -8 8 -7 16 2 27 17 21 30 19 30 -4z m380 -8 c0 -13 -3 -13 -15 -3 -8 7
-12 16 -9 21 8 13 24 1 24 -18z m2085 17 c3 -5 2 -10 -4 -10 -5 0 -13 5 -16
10 -3 6 -2 10 4 10 5 0 13 -4 16 -10z m85 -10 c0 -5 -7 -10 -16 -10 -8 0 -12
5 -9 10 3 6 10 10 16 10 5 0 9 -4 9 -10z m-2830 -10 c0 -5 -4 -10 -10 -10 -5
0 -10 5 -10 10 0 6 5 10 10 10 6 0 10 -4 10 -10z m152 -5 c0 -14 -29 -31 -38
-22 -9 8 16 39 28 35 5 -2 10 -8 10 -13z m171 -2 c-1 -6 6 -9 17 -6 14 4 20 0
20 -10 0 -21 -19 -32 -33 -18 -6 6 -19 11 -29 11 -20 0 -21 1 -12 25 7 17 40
16 37 -2z m151 2 c-4 -8 -10 -15 -15 -15 -5 0 -9 7 -9 15 0 8 7 15 15 15 9 0
12 -6 9 -15z m510 6 c3 -5 -1 -11 -9 -14 -9 -4 -12 -1 -8 9 6 16 10 17 17 5z
m-1114 -11 c0 -5 -7 -10 -15 -10 -8 0 -15 5 -15 10 0 6 7 10 15 10 8 0 15 -4
15 -10z m1050 -11 c0 -6 -4 -7 -10 -4 -5 3 -10 11 -10 16 0 6 5 7 10 4 6 -3
10 -11 10 -16z m1800 11 c0 -5 -7 -10 -15 -10 -8 0 -15 5 -15 10 0 6 7 10 15
10 8 0 15 -4 15 -10z m-2765 -11 c10 -15 -1 -23 -20 -15 -9 3 -13 10 -10 16 8
13 22 13 30 -1z m565 1 c0 -5 -5 -10 -11 -10 -5 0 -7 5 -4 10 3 6 8 10 11 10
2 0 4 -4 4 -10z m300 -11 c0 -5 -4 -9 -10 -9 -5 0 -10 7 -10 16 0 8 5 12 10 9
6 -3 10 -10 10 -16z m2060 11 c0 -5 -4 -10 -10 -10 -5 0 -10 5 -10 10 0 6 5
10 10 10 6 0 10 -4 10 -10z m-2820 -16 c0 -9 -7 -14 -17 -12 -25 5 -28 28 -4
28 12 0 21 -6 21 -16z m140 1 c0 -8 -9 -15 -20 -15 -20 0 -26 11 -13 23 12 13
33 7 33 -8z m573 -10 c-3 -8 -9 -15 -14 -15 -10 0 -12 24 -3 33 11 11 24 -3
17 -18z m2012 15 c3 -5 1 -10 -4 -10 -6 0 -11 5 -11 10 0 6 2 10 4 10 3 0 8
-4 11 -10z m-2542 -6 c11 -11 -5 -34 -24 -34 -17 0 -18 3 -9 20 11 20 22 25
33 14z m165 -6 c-3 -7 -12 -14 -21 -16 -12 -2 -15 1 -11 12 7 19 38 22 32 4z
m312 -3 c0 -8 -4 -15 -9 -15 -13 0 -22 16 -14 24 11 11 23 6 23 -9z m1971 2
c-1 -12 -15 -9 -19 4 -3 6 1 10 8 8 6 -3 11 -8 11 -12z m-2586 -18 c0 -7 -8
-15 -17 -17 -18 -3 -25 18 -11 32 10 10 28 1 28 -15z m2845 11 c0 -5 -7 -10
-16 -10 -8 0 -12 5 -9 10 3 6 10 10 16 10 5 0 9 -4 9 -10z m-3045 -12 c8 -8
-44 -20 -56 -13 -16 11 0 24 26 21 14 -2 27 -5 30 -8z m381 -17 c-10 -16 -36
-13 -36 3 0 17 21 27 34 16 4 -5 5 -13 2 -19z m164 14 c0 -8 -4 -15 -9 -15
-13 0 -22 16 -14 24 11 11 23 6 23 -9z m1435 -5 c10 -32 -4 -80 -24 -80 -37 0
-52 41 -31 81 14 25 47 24 55 -1z m875 10 c0 -5 -4 -10 -10 -10 -5 0 -10 5
-10 10 0 6 5 10 10 10 6 0 10 -4 10 -10z m-2977 -14 c8 -20 -20 -43 -35 -28
-8 8 -8 15 2 27 16 19 26 19 33 1z m222 4 c3 -6 -1 -13 -10 -16 -19 -8 -30 0
-20 15 8 14 22 14 30 1z m985 0 c0 -5 -2 -10 -4 -10 -3 0 -8 5 -11 10 -3 6 -1
10 4 10 6 0 11 -4 11 -10z m1680 -11 c0 -5 -7 -9 -15 -9 -15 0 -20 12 -9 23 8
8 24 -1 24 -14z m172 9 c-9 -9 -15 -9 -24 0 -9 9 -7 12 12 12 19 0 21 -3 12
-12z m-2682 -12 c0 -15 -27 -29 -40 -21 -5 3 -7 12 -3 20 7 19 43 20 43 1z
m173 8 c11 -11 -5 -34 -24 -34 -21 0 -22 1 -13 24 6 16 25 21 37 10z m165 -6
c-6 -18 -28 -21 -28 -4 0 9 7 16 16 16 9 0 14 -5 12 -12z m393 -11 c-13 -13
-26 -3 -16 12 3 6 11 8 17 5 6 -4 6 -10 -1 -17z m-1061 -2 c0 -8 -9 -15 -20
-15 -20 0 -26 11 -13 23 12 13 33 7 33 -8z m1010 1 c0 -8 -4 -17 -9 -20 -10
-7 -23 19 -14 28 11 11 23 6 23 -8z m2060 4 c0 -5 -7 -10 -15 -10 -8 0 -15 5
-15 10 0 6 7 10 15 10 8 0 15 -4 15 -10z m-2942 -18 c3 -9 -2 -13 -14 -10 -9
1 -19 9 -22 16 -3 9 2 13 14 10 9 -1 19 -9 22 -16z m102 4 c0 -8 -5 -18 -11
-22 -14 -8 -33 11 -25 25 10 16 36 13 36 -3z m145 -7 c0 -7 -8 -15 -17 -17
-18 -3 -25 18 -11 32 10 10 28 1 28 -15z m171 10 c10 -17 -13 -36 -27 -22 -12
12 -4 33 11 33 5 0 12 -5 16 -11z m412 0 c-2 -6 -8 -10 -13 -10 -5 0 -11 4
-13 10 -2 6 4 11 13 11 9 0 15 -5 13 -11z m2012 -4 c10 -13 9 -15 -8 -15 -15
0 -20 5 -16 15 4 8 7 15 9 15 1 0 8 -7 15 -15z m-2260 -5 c0 -5 -4 -10 -10
-10 -5 0 -10 5 -10 10 0 6 5 10 10 10 6 0 10 -4 10 -10z m432 -7 c33 -30 13
-119 -24 -107 -10 3 -25 1 -33 -6 -10 -8 -15 -8 -21 1 -4 7 -2 15 5 17 9 3 8
10 -4 29 -17 26 -12 40 24 71 20 16 31 15 53 -5z m1668 -4 c0 -5 -7 -9 -15 -9
-15 0 -20 12 -9 23 8 8 24 -1 24 -14z m80 6 c0 -8 -4 -15 -10 -15 -5 0 -10 7
-10 15 0 8 5 15 10 15 6 0 10 -7 10 -15z m240 6 c0 -14 -18 -23 -30 -16 -6 4
-8 11 -5 16 8 12 35 12 35 0z m-3270 -16 c0 -19 -24 -30 -41 -19 -9 5 -7 11 6
21 24 17 35 17 35 -2z m560 0 c0 -15 -26 -32 -36 -23 -2 3 -2 13 2 22 8 20 34
21 34 1z m175 -6 c0 -7 -8 -15 -17 -17 -18 -3 -25 18 -11 32 10 10 28 1 28
-15z m595 -1 c0 -19 -2 -20 -10 -8 -13 19 -13 30 0 30 6 0 10 -10 10 -22z
m-1284 -15 c-3 -30 -36 -46 -36 -19 0 9 5 16 10 16 6 0 9 3 9 8 -3 14 1 22 10
22 5 0 8 -12 7 -27z m142 8 c3 -8 -1 -12 -9 -9 -7 2 -15 10 -17 17 -3 8 1 12
9 9 7 -2 15 -10 17 -17z m232 5 c0 -8 -5 -18 -11 -22 -14 -8 -33 11 -25 25 10
16 36 13 36 -3z m2750 -1 c0 -8 -7 -15 -15 -15 -16 0 -20 12 -8 23 11 12 23 8
23 -8z m-3070 -5 c0 -12 -28 -25 -36 -17 -9 9 6 27 22 27 8 0 14 -5 14 -10z
m220 0 c0 -12 -28 -25 -36 -17 -9 9 6 27 22 27 8 0 14 -5 14 -10z m284 -5 c3
-9 -1 -18 -10 -22 -19 -7 -28 2 -21 22 8 19 23 19 31 0z m296 5 c0 -5 -5 -10
-11 -10 -5 0 -7 5 -4 10 3 6 8 10 11 10 2 0 4 -4 4 -10z m2108 -13 c2 -12 -1
-15 -12 -11 -19 7 -22 38 -3 32 6 -3 13 -12 15 -21z m72 8 c0 -8 -4 -15 -10
-15 -5 0 -10 7 -10 15 0 8 5 15 10 15 6 0 10 -7 10 -15z m260 9 c0 -12 -31
-35 -40 -29 -15 10 -12 23 8 28 27 7 32 7 32 1z m-3436 -12 c2 -4 1 -14 -4
-22 -7 -11 -12 -12 -21 -3 -6 6 -8 16 -5 22 8 13 23 14 30 3z m246 -6 c0 -19
-26 -27 -39 -12 -13 15 -4 26 21 26 10 0 18 -6 18 -14z m630 -1 c0 -8 -4 -15
-9 -15 -13 0 -22 16 -14 24 11 11 23 6 23 -9z m2450 0 c0 -8 -7 -15 -15 -15
-8 0 -15 7 -15 15 0 8 7 15 15 15 8 0 15 -7 15 -15z m-2759 -10 c0 -5 -9 -11
-21 -13 -20 -3 -27 8 -13 22 10 9 34 3 34 -9z m689 -1 c0 -8 -4 -12 -10 -9 -5
3 -10 10 -10 16 0 5 5 9 10 9 6 0 10 -7 10 -16z m1760 6 c0 -5 -7 -10 -16 -10
-8 0 -12 5 -9 10 3 6 10 10 16 10 5 0 9 -4 9 -10z m-2652 -35 c-8 -8 -58 5
-58 15 0 15 35 17 49 4 8 -8 12 -16 9 -19z m102 21 c0 -8 -5 -18 -11 -22 -14
-8 -33 11 -25 25 10 16 36 13 36 -3z m290 10 c0 -2 -3 -11 -6 -20 -9 -23 -34
-20 -34 4 0 13 7 20 20 20 11 0 20 -2 20 -4z m2777 -2 c-3 -3 -12 -4 -19 -1
-8 3 -5 6 6 6 11 1 17 -2 13 -5z m-3487 -18 c0 -8 -4 -17 -9 -21 -12 -7 -24
12 -16 25 9 15 25 12 25 -4z m570 -1 c0 -16 -27 -32 -37 -22 -3 4 -3 13 0 22
8 20 37 20 37 0z m310 0 c0 -8 -4 -15 -10 -15 -5 0 -10 7 -10 15 0 8 5 15 10
15 6 0 10 -7 10 -15z m2151 0 c-1 -15 -24 -12 -29 3 -3 9 2 13 12 10 10 -1 17
-7 17 -13z m154 4 c10 -15 -1 -23 -20 -15 -9 3 -13 10 -10 16 8 13 22 13 30
-1z m153 -1 c-3 -7 -11 -13 -18 -13 -7 0 -15 6 -17 13 -3 7 4 12 17 12 13 0
20 -5 18 -12z m-3188 -13 c0 -16 -35 -21 -44 -6 -8 12 4 21 26 21 10 0 18 -7
18 -15z m98 -8 c2 -10 -3 -17 -12 -17 -18 0 -29 16 -21 31 9 14 29 6 33 -14z
m505 17 c9 -10 -4 -34 -19 -34 -8 0 -14 6 -14 13 0 22 19 35 33 21z m-708 -34
c-5 -8 -11 -8 -17 -2 -6 6 -7 16 -3 22 5 8 11 8 17 2 6 -6 7 -16 3 -22z m425
16 c0 -17 -27 -29 -35 -16 -4 6 -3 15 0 20 9 15 35 12 35 -4z m145 4 c10 -16
-16 -43 -28 -31 -11 11 -2 41 12 41 5 0 13 -5 16 -10z m315 -5 c0 -8 -4 -15
-10 -15 -5 0 -10 7 -10 15 0 8 5 15 10 15 6 0 10 -7 10 -15z m2170 5 c0 -5 -4
-10 -10 -10 -5 0 -10 5 -10 10 0 6 5 10 10 10 6 0 10 -4 10 -10z m310 -10
c-24 -21 -42 -23 -41 -5 1 6 5 10 10 10 5 0 13 3 17 8 4 4 14 7 22 7 11 0 8
-6 -8 -20z m-3499 -3 c-1 -12 -15 -9 -19 4 -3 6 1 10 8 8 6 -3 11 -8 11 -12z
m892 -13 c-5 -15 -25 -19 -36 -7 -11 10 13 32 28 27 8 -3 11 -12 8 -20z m2137
16 c0 -5 -7 -10 -15 -10 -8 0 -15 5 -15 10 0 6 7 10 15 10 8 0 15 -4 15 -10z
m300 2 c0 -13 -12 -22 -22 -16 -10 6 -1 24 13 24 5 0 9 -4 9 -8z m-2870 -18
c0 -9 -7 -14 -17 -12 -25 5 -28 28 -4 28 12 0 21 -6 21 -16z m2638 4 c-7 -19
-38 -22 -38 -4 0 10 9 16 21 16 12 0 19 -5 17 -12z m71 -14 c3 -16 1 -17 -13
-5 -19 16 -21 34 -3 29 6 -3 14 -13 16 -24z m71 5 c0 -5 -7 -9 -15 -9 -15 0
-20 12 -9 23 8 8 24 -1 24 -14z m150 6 c0 -8 -7 -15 -15 -15 -16 0 -20 12 -8
23 11 12 23 8 23 -8z m204 0 c-22 -17 -34 -19 -34 -6 0 5 8 12 18 14 32 9 36
7 16 -8z m-3626 -12 c2 -8 -5 -13 -17 -13 -21 0 -35 13 -24 24 10 10 36 3 41
-11z m215 11 c8 -8 -3 -34 -14 -34 -5 0 -9 9 -9 20 0 19 11 26 23 14z m107 -9
c0 -8 -9 -15 -20 -15 -11 0 -20 7 -20 15 0 8 9 15 20 15 11 0 20 -7 20 -15z
m323 9 c9 -10 -4 -34 -18 -34 -17 0 -28 17 -20 30 7 11 28 13 38 4z m135 -10
c-9 -9 -21 -13 -27 -9 -16 10 -3 25 22 25 20 0 20 -1 5 -16z m332 8 c0 -13
-12 -22 -22 -16 -10 6 -1 24 13 24 5 0 9 -4 9 -8z m-1020 -28 c0 -14 -21 -19
-33 -7 -9 9 13 34 24 27 5 -3 9 -12 9 -20z m336 16 c8 0 14 -6 14 -14 0 -21
-54 -15 -58 8 -3 14 0 17 13 12 9 -3 23 -6 31 -6z m410 -1 c10 -17 -23 -46
-37 -32 -7 7 -9 19 -6 27 7 18 33 21 43 5z m134 -4 c0 -8 -4 -15 -9 -15 -13 0
-22 16 -14 24 11 11 23 6 23 -9z m-420 -4 c0 -5 -7 -14 -15 -21 -18 -15 -42 1
-31 19 8 13 46 15 46 2z m606 -18 c-10 -10 -19 5 -10 18 6 11 8 11 12 0 2 -7
1 -15 -2 -18z m1869 17 c3 -5 1 -10 -4 -10 -6 0 -11 5 -11 10 0 6 2 10 4 10 3
0 8 -4 11 -10z m158 -5 c7 -16 -8 -29 -23 -20 -15 9 -12 35 4 35 8 0 16 -7 19
-15z m297 0 c0 -8 -6 -15 -14 -15 -17 0 -28 14 -19 24 12 12 33 6 33 -9z m105
5 c3 -6 -1 -7 -9 -4 -18 7 -21 14 -7 14 6 0 13 -4 16 -10z m-3315 -26 c0 -19
-28 -30 -42 -16 -8 8 -8 15 1 26 14 17 41 10 41 -10z m110 -4 c0 -15 -33 -20
-47 -8 -13 10 -13 14 3 25 17 12 44 2 44 -17z m310 20 c0 -12 -28 -25 -36 -17
-9 9 6 27 22 27 8 0 14 -5 14 -10z m2402 -22 c-9 -9 -15 -9 -24 0 -10 10 -10
15 2 22 20 12 38 -6 22 -22z m238 17 c0 -8 -7 -15 -15 -15 -8 0 -15 7 -15 15
0 8 7 15 15 15 8 0 15 -7 15 -15z m224 -16 c-19 -21 -44 -25 -44 -8 0 17 32
38 48 32 10 -4 9 -9 -4 -24z m-3414 7 c0 -16 -18 -31 -27 -22 -8 8 5 36 17 36
5 0 10 -6 10 -14z m744 -1 c3 -9 -1 -18 -10 -22 -19 -7 -39 11 -30 26 10 16
33 13 40 -4z m574 -4 c3 -8 -1 -12 -9 -9 -7 2 -15 10 -17 17 -3 8 1 12 9 9 7
-2 15 -10 17 -17z m-1410 -10 c3 -8 -1 -12 -9 -9 -7 2 -15 10 -17 17 -3 8 1
12 9 9 7 -2 15 -10 17 -17z m542 5 c0 -18 -16 -29 -30 -21 -13 8 -1 35 16 35
8 0 14 -6 14 -14z m150 -1 c0 -16 -27 -32 -37 -22 -3 4 -3 13 0 22 8 20 37 20
37 0z m2420 -11 c0 -8 -9 -14 -20 -14 -19 0 -27 19 -14 33 10 9 34 -4 34 -19z
m228 8 c2 -7 -3 -12 -12 -12 -9 0 -16 7 -16 16 0 17 22 14 28 -4z m-2900 -16
c3 -13 -1 -17 -14 -14 -11 2 -20 11 -22 22 -3 13 1 17 14 14 11 -2 20 -11 22
-22z m589 -2 c-9 -9 -28 6 -21 18 4 6 10 6 17 -1 6 -6 8 -13 4 -17z m468 16
c3 -5 -1 -10 -9 -10 -9 0 -16 5 -16 10 0 6 4 10 9 10 6 0 13 -4 16 -10z
m-1537 -18 c2 -7 -6 -12 -17 -12 -21 0 -27 11 -14 24 9 9 26 2 31 -12z m932 8
c0 -12 -28 -25 -36 -17 -9 9 6 27 22 27 8 0 14 -5 14 -10z m2028 -1 c-2 -6 -8
-11 -13 -10 -5 0 -11 4 -13 10 -2 6 4 11 13 11 9 0 15 -5 13 -11z m654 -1 c-9
-9 -15 -9 -24 0 -9 9 -7 12 12 12 19 0 21 -3 12 -12z m58 -4 c0 -8 -4 -12 -10
-9 -5 3 -10 10 -10 16 0 5 5 9 10 9 6 0 10 -7 10 -16z"/>
<path d="M1950 1140 c0 -5 5 -10 10 -10 6 0 10 5 10 10 0 6 -4 10 -10 10 -5 0
-10 -4 -10 -10z"/>
<path d="M1996 1084 c-4 -9 -4 -19 -1 -22 2 -3 7 3 11 12 4 9 4 19 1 22 -2 3
-7 -3 -11 -12z"/>
<path d="M1950 1070 c0 -5 5 -10 11 -10 5 0 7 5 4 10 -3 6 -8 10 -11 10 -2 0
-4 -4 -4 -10z"/>
<path d="M1606 1007 c3 -10 9 -15 12 -12 3 3 0 11 -7 18 -10 9 -11 8 -5 -6z"/>
<path d="M2480 995 c-7 -9 -11 -18 -8 -20 9 -10 38 7 38 21 0 18 -14 18 -30
-1z"/>
<path d="M1720 941 c0 -5 5 -13 10 -16 6 -3 10 -2 10 4 0 5 -4 13 -10 16 -5 3
-10 2 -10 -4z"/>
<path d="M2325 800 c-7 -12 2 -30 15 -30 5 0 8 9 7 20 -1 21 -12 26 -22 10z"/>
<path d="M2387 782 c-19 -20 -23 -37 -7 -27 10 6 33 45 27 45 -2 0 -11 -8 -20
-18z"/>
<path d="M2280 750 c0 -5 5 -10 10 -10 6 0 10 5 10 10 0 6 -4 10 -10 10 -5 0
-10 -4 -10 -10z"/>
<path d="M2350 700 c0 -5 11 -10 25 -10 14 0 25 5 25 10 0 6 -11 10 -25 10
-14 0 -25 -4 -25 -10z"/>
<path d="M2203 657 c-18 -6 -33 -14 -33 -18 0 -14 38 -19 65 -9 23 9 25 13 15
25 -7 8 -13 14 -14 14 0 -1 -16 -7 -33 -12z"/>
<path d="M2287 633 c4 -11 8 -12 11 -5 2 7 8 12 14 12 6 0 8 -7 5 -15 -9 -22
10 -28 32 -9 27 23 18 34 -29 34 -33 0 -38 -3 -33 -17z"/>
<path d="M2260 595 c0 -8 7 -15 15 -15 8 0 15 7 15 15 0 8 -7 15 -15 15 -8 0
-15 -7 -15 -15z"/>
<path d="M72 89 c-24 -23 -41 -44 -38 -47 3 -2 12 0 20 7 8 6 20 10 27 9 8 -2
13 3 11 11 -2 7 6 20 18 28 20 14 27 33 13 33 -5 0 -27 -19 -51 -41z"/>
<path d="M0 10 c0 -5 5 -10 11 -10 5 0 7 5 4 10 -3 6 -8 10 -11 10 -2 0 -4 -4
-4 -10z"/>
</g>
</svg>
